{
  "asset": {
    "generator": "Khronos glTF Blender I/O v1.6.16",
    "version": "2.0"
  },
  "scene": 0,
  "scenes": [
    {
      "name": "Scene",
      "nodes": [
        0
      ]
    }
  ],
  "nodes": [
    {
      "mesh": 0,
      "name": "Brush",
      "scale": [
        1,
        1,
        -1
      ]
    }
  ],
  "materials": [
    {
      "doubleSided": true,
      "name": "Tex",
      "normalTexture": {
        "index": 0
      },
      "pbrMetallicRoughness": {
        "baseColorTexture": {
          "index": 1
        },
        "metallicRoughnessTexture": {
          "index": 2
        }
      }
    }
  ],
  "meshes": [
    {
      "name": "Cylinder.059",
      "primitives": [
        {
          "attributes": {
            "POSITION": 0,
            "NORMAL": 1,
            "TEXCOORD_0": 2
          },
          "indices": 3,
          "material": 0
        }
      ]
    }
  ],
  "textures": [
    {
      "sampler": 0,
      "source": 0
    },
    {
      "sampler": 0,
      "source": 1
    },
    {
      "sampler": 0,
      "source": 2
    }
  ],
  "images": [
    {
      "name": "BrushNormal",
      "uri": "brush_img0.png"
    },
    {
      "name": "BrushColour",
      "uri": "brush_img1.png"
    },
    {
      "name": "BrushMetallic-BrushRoughness",
      "uri": "brush_img2.png"
    }
  ],
  "accessors": [
    {
      "bufferView": 0,
      "componentType": 5126,
      "count": 2907,
      "max": [
        0.05000000447034836,
        1.081740379333496,
        0.14000001549720764
      ],
      "min": [
        -0.05000000447034836,
        -0.12021612375974655,
        -0.14000001549720764
      ],
      "type": "VEC3"
    },
    {
      "bufferView": 1,
      "componentType": 5126,
      "count": 2907,
      "type": "VEC3"
    },
    {
      "bufferView": 2,
      "componentType": 5126,
      "count": 2907,
      "type": "VEC2"
    },
    {
      "bufferView": 3,
      "componentType": 5123,
      "count": 9960,
      "type": "SCALAR"
    }
  ],
  "bufferViews": [
    {
      "buffer": 0,
      "byteLength": 34884,
      "byteOffset": 0
    },
    {
      "buffer": 0,
      "byteLength": 34884,
      "byteOffset": 34884
    },
    {
      "buffer": 0,
      "byteLength": 23256,
      "byteOffset": 69768
    },
    {
      "buffer": 0,
      "byteLength": 19920,
      "byteOffset": 93024
    }
  ],
  "samplers": [
    {
      "magFilter": 9729,
      "minFilter": 9987
    }
  ],
  "buffers": [
    {
      "uri": "brush_data.bin",
      "byteLength": 112944
    }
  ]
}