{
    "asset" : {
        "generator" : "Khronos glTF Blender I/O v1.7.33",
        "version" : "2.0"
    },
    "scene" : 0,
    "scenes" : [
        {
            "name" : "Scene",
            "nodes" : [
                0
            ]
        }
    ],
    "nodes" : [
        {
            "mesh" : 0,
            "name" : "Brush",
            "scale" : [
                1,
                1,
                -1
            ]
        }
    ],
    "animations" : [
        {
            "channels" : [
                {
                    "sampler" : 0,
                    "target" : {
                        "node" : 0,
                        "path" : "translation"
                    }
                },
                {
                    "sampler" : 1,
                    "target" : {
                        "node" : 0,
                        "path" : "rotation"
                    }
                }
            ],
            "name" : "BrushAction",
            "samplers" : [
                {
                    "input" : 4,
                    "interpolation" : "LINEAR",
                    "output" : 5
                },
                {
                    "input" : 4,
                    "interpolation" : "LINEAR",
                    "output" : 6
                }
            ]
        }
    ],
    "meshes" : [
        {
            "name" : "Cylinder.059",
            "primitives" : [
                {
                    "attributes" : {
                        "POSITION" : 0,
                        "NORMAL" : 1,
                        "TEXCOORD_0" : 2
                    },
                    "indices" : 3
                }
            ]
        }
    ],
    "accessors" : [
        {
            "bufferView" : 0,
            "componentType" : 5126,
            "count" : 2907,
            "max" : [
                0.05000000447034836,
                1.081740379333496,
                0.14000001549720764
            ],
            "min" : [
                -0.05000000447034836,
                -0.12021612375974655,
                -0.14000001549720764
            ],
            "type" : "VEC3"
        },
        {
            "bufferView" : 1,
            "componentType" : 5126,
            "count" : 2907,
            "type" : "VEC3"
        },
        {
            "bufferView" : 2,
            "componentType" : 5126,
            "count" : 2907,
            "type" : "VEC2"
        },
        {
            "bufferView" : 3,
            "componentType" : 5123,
            "count" : 9960,
            "type" : "SCALAR"
        },
        {
            "bufferView" : 4,
            "componentType" : 5126,
            "count" : 15,
            "max" : [
                0.625
            ],
            "min" : [
                0.041666666666666664
            ],
            "type" : "SCALAR"
        },
        {
            "bufferView" : 5,
            "componentType" : 5126,
            "count" : 15,
            "type" : "VEC3"
        },
        {
            "bufferView" : 6,
            "componentType" : 5126,
            "count" : 15,
            "type" : "VEC4"
        }
    ],
    "bufferViews" : [
        {
            "buffer" : 0,
            "byteLength" : 34884,
            "byteOffset" : 0
        },
        {
            "buffer" : 0,
            "byteLength" : 34884,
            "byteOffset" : 34884
        },
        {
            "buffer" : 0,
            "byteLength" : 23256,
            "byteOffset" : 69768
        },
        {
            "buffer" : 0,
            "byteLength" : 19920,
            "byteOffset" : 93024
        },
        {
            "buffer" : 0,
            "byteLength" : 60,
            "byteOffset" : 112944
        },
        {
            "buffer" : 0,
            "byteLength" : 180,
            "byteOffset" : 113004
        },
        {
            "buffer" : 0,
            "byteLength" : 240,
            "byteOffset" : 113184
        }
    ],
    "buffers" : [
        {
            "byteLength" : 113424,
            "uri" : "Brush/brush.bin"
        }
    ]
}
